<svg id="Flat" height="512" viewBox="0 0 512 512" width="512" xmlns="http://www.w3.org/2000/svg"><g><path d="m24 64h464v296h-464z" fill="#fac850"/><path d="m24 40h464v32h-464z" fill="#79d8eb"/><path d="m488 344h-464v112h168v32h128v-32h168z" fill="#c9eff7"/><path d="m24 448h104v40h-104z" fill="#79d8eb"/><path d="m384 448h104v40h-104z" fill="#79d8eb"/><path d="m112 328h288v32h-288z" fill="#79d8eb"/><path d="m136 456v-96h-16v128h72v-32z" fill="#fa5d3f"/><path d="m376 360v96h-56v32h72v-128z" fill="#fa5d3f"/><path d="m152 72h224v256h-224z" fill="#fac850"/><path d="m136 72h16v256h-16z" fill="#fa5d3f"/><path d="m360 72h16v256h-16z" fill="#fa5d3f"/><path d="m200 24h112v128h-112z" fill="#fa5d3f"/><g fill="#fffdfa"><path d="m56 96h16v64h-16z"/><path d="m96 96h16v64h-16z"/><path d="m56 176h16v64h-16z"/><path d="m96 176h16v64h-16z"/><path d="m56 256h16v64h-16z"/><path d="m96 256h16v48h-16z"/><path d="m440 96h16v64h-16z"/><path d="m400 96h16v64h-16z"/><path d="m440 176h16v64h-16z"/><path d="m400 176h16v64h-16z"/><path d="m440 256h16v64h-16z"/><path d="m400 256h16v48h-16z"/></g><path d="m272 48v32h-32v-32h-16v80h16v-32h32v32h16v-80z" fill="#fff9f8"/><path d="m176 184h44a20 20 0 0 1 20 20v20a0 0 0 0 1 0 0h-44a20 20 0 0 1 -20-20v-20a0 0 0 0 1 0 0z" fill="#fffdfa"/><path d="m292 184h44a0 0 0 0 1 0 0v20a20 20 0 0 1 -20 20h-44a0 0 0 0 1 0 0v-20a20 20 0 0 1 20-20z" fill="#fffdfa"/><path d="m176 256h44a20 20 0 0 1 20 20v20a0 0 0 0 1 0 0h-44a20 20 0 0 1 -20-20v-20a0 0 0 0 1 0 0z" fill="#fffdfa"/><path d="m292 256h44a0 0 0 0 1 0 0v20a20 20 0 0 1 -20 20h-44a0 0 0 0 1 0 0v-20a20 20 0 0 1 20-20z" fill="#fffdfa"/><path d="m184 360h64v128h-64z" fill="#e4f7fb"/><path d="m216 424h16v16h-16z" fill="#79d8eb"/><path d="m264 360h64v128h-64z" fill="#e4f7fb"/><path d="m280 424h16v16h-16z" fill="#79d8eb"/></g></svg>